<?xml version="1.0" standalone="no"?>
<!DOCTYPE svg PUBLIC "-//W3C//DTD SVG 20010904//EN"
 "http://www.w3.org/TR/2001/REC-SVG-20010904/DTD/svg10.dtd">
<svg version="1.0" xmlns="http://www.w3.org/2000/svg"
 width="41.000000pt" height="98.000000pt" viewBox="0 0 41.000000 98.000000"
 preserveAspectRatio="xMidYMid meet">
<metadata>
Created by potrace 1.13, written by Peter Selinger 2001-2015
</metadata>
<g transform="translate(0.000000,98.000000) scale(0.100000,-0.100000)"
fill="#932400" stroke="none">
<path d="M155 885 c-28 -27 -32 -61 -10 -92 47 -66 150 -8 123 70 -18 51 -74
62 -113 22z"/>
<path d="M69 720 l-30 -29 3 -143 3 -143 25 0 c25 0 25 0 31 115 3 79 6 28 7
-163 1 -169 6 -286 12 -298 12 -21 50 -25 68 -7 8 8 13 66 14 182 l2 171 3
-169 c4 -176 8 -196 47 -196 44 0 46 9 48 309 1 186 4 248 7 177 5 -91 9 -111
24 -120 15 -9 21 -7 33 9 12 16 15 45 12 148 l-3 129 -33 29 c-31 28 -35 29
-138 29 -104 0 -106 -1 -135 -30z"/>
</g>
</svg>
